#!OML:ASF H:\Terrain\Patient Classification 1\Takeo\Monday\TakeoMonday.ASF
:FULLY-SPECIFIED
:DEGREES
162
root 3.72415 17.4135 -0.464311 -163.587 82.554 -159.564
lowerback 7.48237 1.34441 1.76487
upperback 4.10841 2.03082 0.171437
thorax 0.101472 1.09776 -0.958963
lowerneck 1.22327 -16.2072 -11.2016
upperneck -5.13056 -21.5731 17.2465
head 1.42406 -10.8424 6.12352
rclavicle 2.40032e-014 1.0138e-014
rhumerus 15.3395 37.8859 -90.3145
rradius 50.2729
rwrist -9.89833
rhand -47.209 49.1094
rfingers 7.12502
rthumb -19.9082 20.1091
lclavicle 2.40032e-014 1.0138e-014
lhumerus 8.77361 -29.9487 82.2634
lradius 82.3436
lwrist 16.6116
lhand -49.8798 18.1972
lfingers 7.12502
lthumb -22.4737 46.9096
rfemur -10.4123 -9.41133 12.5286
rtibia 42.6437
rfoot -12.9276 -22.6455
rtoes -7.99757
lfemur -10.0247 4.49542 -17.0306
ltibia 35.5536
lfoot -17.5403 8.94681
ltoes -4.53135
163
root 3.7262 17.4072 -0.47393 -165.431 82.2041 -161.345
lowerback 7.47277 1.61157 1.39231
upperback 4.13456 2.36431 0.225248
thorax 0.125887 1.25927 -0.717798
lowerneck 0.987282 -16.7098 -9.63965
upperneck -4.98034 -22.2013 15.6245
head 1.21276 -11.1516 5.41629
rclavicle -1.68967e-014 -5.96354e-015
rhumerus 16.3887 37.6179 -89.4855
rradius 49.7597
rwrist -8.67512
rhand -47.3889 49.1192
rfingers 7.12502
rthumb -20.0811 20.137
lclavicle -1.68967e-014 -5.96354e-015
lhumerus 9.00325 -30.0208 82.2041
lradius 82.7063
lwrist 16.5489
lhand -47.2657 20.6913
lfingers 7.12502
lthumb -19.9627 49.6859
rfemur -10.6144 -9.19096 12.2205
rtibia 43.2664
rfoot -12.1731 -22.0311
rtoes -6.57317
lfemur -10.0933 4.49002 -17.2023
ltibia 35.7335
lfoot -17.5831 8.68027
ltoes -5.89874
164
root 3.73161 17.403 -0.487095 -166.202 81.8033 -162.041
lowerback 7.49106 1.70994 1.54532
upperback 4.12974 2.50438 -0.00102073
thorax 0.131096 1.33454 -1.04614
lowerneck 0.869452 -16.8559 -8.91578
upperneck -4.60198 -22.4074 15.1674
head 1.23038 -11.2476 5.16456
rclavicle -9.24349e-015 1.07344e-014
rhumerus 17.2444 37.2254 -89.5569
rradius 49.0327
rwrist -7.05051
rhand -47.5807 49.6326
rfingers 7.12502
rthumb -20.2654 20.6698
lclavicle -9.24349e-015 1.07344e-014
lhumerus 9.19168 -29.9446 81.4604
lradius 83.3187
lwrist 16.7754
lhand -46.7233 22.9586
lfingers 7.12502
lthumb -19.4412 52.0067
rfemur -10.7793 -9.05059 12.0167
rtibia 43.8608
rfoot -11.1474 -21.3041
rtoes -6.27392
lfemur -10.1138 4.29161 -17.2436
ltibia 35.8508
lfoot -17.6188 8.60901
ltoes -6.72315
165
root 3.73927 17.4039 -0.499744 -166.422 81.3977 -162.078
lowerback 7.62041 1.72142 1.77702
upperback 4.18387 2.53978 -0.196194
thorax 0.136248 1.3606 -1.38218
lowerneck 0.436142 -16.9846 -8.1696
upperneck -4.1223 -22.5838 14.5414
head 1.29921 -11.3127 4.83628
rclavicle -4.12478e-015 -4.77083e-015
rhumerus 18.2338 37.2811 -89.45
rradius 48.4904
rwrist -6.13033
rhand -47.5383 50.5397
rfingers 7.12502
rthumb -20.2247 21.5726
lclavicle -4.12478e-015 -4.77083e-015
lhumerus 9.37225 -29.5496 80.7475
lradius 83.8737
lwrist 16.7954
lhand -47.7046 24.4274
lfingers 7.12502
lthumb -20.3845 53.3775
rfemur -10.8348 -8.89585 11.8664
rtibia 44.4061
rfoot -10.3128 -20.7945
rtoes -6.61535
lfemur -10.0115 4.11711 -17.1622
ltibia 35.9429
lfoot -17.6294 8.59854
ltoes -6.79845
166
root 3.74526 17.4029 -0.508384 -166.293 80.9517 -161.774
lowerback 7.75935 1.70331 1.73188
upperback 4.26096 2.52092 -0.123939
thorax 0.133215 1.35265 -1.2848
lowerneck -0.129222 -17.1192 -7.44758
upperneck -3.62511 -22.7663 13.586
head 1.35458 -11.3767 4.4142
rclavicle -1.98288e-014 3.18055e-015
rhumerus 19.5087 38.0935 -88.4209
rradius 48.3988
rwrist -6.15532
rhand -47.1593 51.0619
rfingers 7.12502
rthumb -19.8604 22.0566
lclavicle -1.98288e-014 3.18055e-015
lhumerus 9.47157 -28.9154 80.435
lradius 84.3484
lwrist 16.8258
lhand -47.7376 23.8608
lfingers 7.12502
lthumb -20.4163 52.8075
rfemur -10.8728 -8.85043 11.8038
rtibia 44.8595
rfoot -9.98618 -20.2932
rtoes -5.96964
lfemur -9.94552 4.1261 -16.9751
ltibia 36.0569
lfoot -17.4699 8.4915
ltoes -7.31435
167
root 3.75021 17.3973 -0.517815 -166.935 80.5406 -162.369
lowerback 7.76954 1.6515 1.48896
upperback 4.28676 2.43862 -0.0220715
thorax 0.136335 1.30731 -1.03821
lowerneck -0.0627421 -17.0789 -8.01281
upperneck -3.37545 -22.7535 13.9624
head 1.52641 -11.3622 4.56736
rclavicle 3.07122e-014 -1.78906e-014
rhumerus 20.883 39.1914 -87.1936
rradius 48.2775
rwrist -6.24935
rhand -47.1128 50.7115
rfingers 7.12502
rthumb -19.8158 21.7016
lclavicle 3.07122e-014 -1.78906e-014
lhumerus 9.42105 -28.0601 80.3503
lradius 84.7791
lwrist 16.8196
lhand -46.7927 22.6485
lfingers 7.12502
lthumb -19.508 51.6899
rfemur -11.0144 -8.92589 11.5891
rtibia 45.2222
rfoot -9.95564 -19.6155
rtoes -5.62191
lfemur -9.98145 3.98793 -16.9926
ltibia 36.1411
lfoot -17.4867 8.32356
ltoes -8.00063
168
root 3.75478 17.389 -0.52484 -167.597 80.1118 -162.917
lowerback 7.83153 1.66527 1.38293
upperback 4.33123 2.45419 -0.0200696
thorax 0.143935 1.3152 -0.979244
lowerneck 0.416886 -17.0381 -9.35363
upperneck -3.39771 -22.77 15.4382
head 1.7814 -11.3768 5.14528
rclavicle -1.21259e-014 -4.77083e-015
rhumerus 22.0618 39.459 -86.6367
rradius 47.6255
rwrist -5.51998
rhand -47.4748 50.7257
rfingers 7.12502
rthumb -20.1637 21.7522
lclavicle -1.21259e-014 -4.77083e-015
lhumerus 9.4064 -27.318 80.4448
lradius 85.1522
lwrist 16.6575
lhand -46.26 22.8671
lfingers 7.12502
lthumb -18.9958 51.9596
rfemur -11.0531 -8.89355 11.3995
rtibia 45.4757
rfoot -10.1887 -19.0361
rtoes -6.18182
lfemur -9.93515 3.6896 -17.0181
ltibia 36.1834
lfoot -17.5833 8.0624
ltoes -7.69055
169
root 3.76094 17.3852 -0.525072 -168.687 79.6289 -163.911
lowerback 7.95076 1.71527 1.16866
upperback 4.32203 2.50935 -0.0775552
thorax 0.0635685 1.34002 -0.92728
lowerneck 0.912949 -17.1044 -9.98276
upperneck -3.57204 -22.9022 16.2883
head 1.84689 -11.4623 5.48154
rclavicle -1.70955e-014 4.77083e-015
rhumerus 23.0286 39.5417 -86.0563
rradius 47.3567
rwrist -4.9449
rhand -47.1255 51.5086
rfingers 7.12502
rthumb -19.828 22.5
lclavicle -1.70955e-014 4.77083e-015
lhumerus 9.42652 -26.8686 80.4222
lradius 85.5714
lwrist 16.6205
lhand -46.3919 24.4719
lfingers 7.12502
lthumb -19.1226 53.5518
rfemur -11.0009 -8.84576 11.1375
rtibia 45.5834
rfoot -10.5944 -18.4735
rtoes -7.15355
lfemur -9.91831 3.3871 -17.0897
ltibia 36.1994
lfoot -17.501 7.8961
ltoes -6.82674
170
root 3.76979 17.3883 -0.524 -169.947 79.1693 -165.19
lowerback 7.96457 1.74737 0.82582
upperback 4.27107 2.52739 -0.109864
thorax -0.00970375 1.34255 -0.771972
lowerneck 1.09321 -17.2981 -9.60908
upperneck -3.61812 -23.1561 15.8825
head 1.74101 -11.6011 5.32689
rclavicle 1.61513e-014 -6.36111e-015
rhumerus 24.0963 40.0019 -85.0126
rradius 47.6751
rwrist -5.35348
rhand -45.7176 50.8037
rfingers 7.12502
rthumb -18.4741 21.6609
lclavicle 1.61513e-014 -6.36111e-015
lhumerus 9.39795 -26.3353 80.2395
lradius 86.1288
lwrist 16.8376
lhand -46.0637 24.9625
lfingers 7.12502
lthumb -18.8069 54.0733
rfemur -10.9832 -8.7715 10.8044
rtibia 45.5464
rfoot -11.0736 -17.9149
rtoes -7.52952
lfemur -9.97867 3.11533 -17.2375
ltibia 36.1764
lfoot -17.3741 7.74835
ltoes -5.32571
